<svg width="800" height="800" viewBox="0 0 800 800" fill="none" xmlns="http://www.w3.org/2000/svg">
<mask id="mask0_49_487" style="mask-type:alpha" maskUnits="userSpaceOnUse" x="0" y="0" width="800" height="800">
<rect width="800" height="800" fill="#D9D9D9"/>
</mask>
<g mask="url(#mask0_49_487)">
<path d="M269.167 666.667C263.056 666.667 257.361 665.139 252.083 662.083C246.806 659.028 242.778 654.722 240 649.167L175 533.333H223.333L256.667 600H333.333V566.667H276.667L243.333 500H156.667L109.167 416.667C108.056 413.889 107.083 411.111 106.25 408.333C105.417 405.556 105 402.778 105 400C105 397.778 106.389 392.222 109.167 383.333L156.667 300H243.333L276.667 233.333H333.333V200H256.667L223.333 266.667H175L240 150.833C242.778 145.278 246.806 140.972 252.083 137.917C257.361 134.861 263.056 133.333 269.167 133.333H350C359.444 133.333 367.361 136.528 373.75 142.917C380.139 149.306 383.333 157.222 383.333 166.667V300H333.333L300 333.333H383.333V433.333H310L276.667 366.667H200L166.667 400H256.667L290 466.667H383.333V633.333C383.333 642.778 380.139 650.694 373.75 657.083C367.361 663.472 359.444 666.667 350 666.667H269.167ZM450 666.667C440.556 666.667 432.639 663.472 426.25 657.083C419.861 650.694 416.667 642.778 416.667 633.333V466.667H510L543.333 400H633.333L600 366.667H523.333L490 433.333H416.667V333.333H500L466.667 300H416.667V166.667C416.667 157.222 419.861 149.306 426.25 142.917C432.639 136.528 440.556 133.333 450 133.333H530.833C536.944 133.333 542.639 134.861 547.917 137.917C553.194 140.972 557.222 145.278 560 150.833L625 266.667H576.667L543.333 200H466.667V233.333H523.333L556.667 300H643.333L690.833 383.333C691.944 386.111 692.917 388.889 693.75 391.667C694.583 394.444 695 397.222 695 400C695 402.222 693.611 407.778 690.833 416.667L643.333 500H556.667L523.333 566.667H466.667V600H543.333L576.667 533.333H625L560 649.167C557.222 654.722 553.194 659.028 547.917 662.083C542.639 665.139 536.944 666.667 530.833 666.667H450Z" fill="white"/>
</g>
</svg>
